<svg xmlns="http://www.w3.org/2000/svg" style="height: 0; width: 0; position: absolute;">
  <symbol
    fill="none"
    id="carIcon"
    stroke-linecap="round"
    stroke-linejoin="round"
    stroke-width="2"
    stroke="currentColor"
    viewBox="0 0 24 24"
  >
    <path
      d="M19 17h2c.6 0 1-.4 1-1v-3c0-.9-.7-1.7-1.5-1.9C18.7 10.6 16 10 16
      10s-1.3-1.4-2.2-2.3c-.5-.4-1.1-.7-1.8-.7H5c-.6 0-1.1.4-1.4.9l-1.4 2.9A3.7
      3.7 0 0 0 2 12v4c0 .6.4 1 1 1h2"
    />
    <circle cx="7" cy="17" r="2" />
    <path d="M9 17h6" />
    <circle cx="17" cy="17" r="2" />
  </symbol>

  <symbol
    fill="none"
    id="emailIcon"
    stroke-linecap="round"
    stroke-linejoin="round"
    stroke-width="2"
    stroke="currentColor"
    viewBox="0 0 24 24"
  >
    <circle cx="12" cy="12" r="4" />
    <path d="M16 8v5a3 3 0 0 0 6 0v-1a10 10 0 1 0-4 8" />
  </symbol>

  <symbol
    fill="none"
    id="userIcon"
    stroke-linecap="round"
    stroke-linejoin="round"
    stroke-width="2"
    stroke="currentColor"
    viewBox="0 0 24 24"
  >
    <path d="M19 21v-2a4 4 0 0 0-4-4H9a4 4 0 0 0-4 4v2" />
    <circle cx="12" cy="7" r="4" />
  </symbol>

  <symbol
    fill="none"
    id="lockIcon"
    stroke-linecap="round"
    stroke-linejoin="round"
    stroke-width="2"
    stroke="currentColor"
    viewBox="0 0 24 24"
  >
    <rect width="18" height="11" x="3" y="11" rx="2" ry="2" />
    <path d="M7 11V7a5 5 0 0 1 10 0v4" />
  </symbol>
</svg>